<?xml version="1.0" encoding="utf-8"?>
<!-- Generator: Adobe Illustrator 24.3.0, SVG Export Plug-In . SVG Version: 6.00 Build 0)  -->
<svg version="1.1" id="レイヤー_1" focusable="false"
	 xmlns="http://www.w3.org/2000/svg" xmlns:xlink="http://www.w3.org/1999/xlink" x="0px" y="0px" viewBox="0 0 512 512"
	 style="enable-background:new 0 0 512 512;" xml:space="preserve">
<style type="text/css">
	.st0{display:none;fill:#A4A1FF;}
	.st1{fill:#FF6464;}
</style>
<path class="st0" d="M256,8C119,8,8,119,8,256s111,248,248,248s248-111,248-248S393,8,256,8z M256,456c-110.5,0-200-89.5-200-200
	S145.5,56,256,56s200,89.5,200,200S366.5,456,256,456z"/>
<path class="st1" d="M309,256.4L472.1,93.3l33.6-33.6c5-5,5-13,0-18l-36-36c-5-5-13-5-18,0L255,202.4L58.2,5.6c-5-5-13-5-18,0
	l-36,36c-5,5-5,13,0,18L201,256.4L4.2,453.2c-5,5-5,13,0,18l36,36c5,5,13,5,18,0L255,310.4l163.1,163.1l33.6,33.6c5,5,13,5,18,0
	l36-36c5-5,5-13,0-18L309,256.4z"/>
</svg>
